# Made in Blockbench 5.1.4
mtllib tie.mtl

o cube
v 0.20395737150947127 -0.41880955973253453 0.125
v -0.2821785405562801 0.06732635233321693 0.125
v -0.19379019290796165 0.15571469998153534 0.125
v 0.29234571915778973 -0.3304212120842161 0.125
v 0.20395737150947127 -0.41880955973253453 0.375
v 0.29234571915778973 -0.3304212120842161 0.375
v -0.2821785405562801 0.06732635233321693 0.375
v -0.19379019290796165 0.15571469998153534 0.375
vt 0 0.9375
vt 0.34375 0.9375
vt 0.34375 1
vt 0 1
vt 0.5 0.84375
vt 0.59375 0.84375
vt 0.59375 0.90625
vt 0.5 0.90625
vt 0.34375 0.9375
vt 0.6875 0.9375
vt 0.6875 1
vt 0.34375 1
vt 0.375 0.84375
vt 0.46875 0.84375
vt 0.46875 0.90625
vt 0.375 0.90625
vt 0 0.8125
vt 0.34375 0.8125
vt 0.34375 0.9375
vt 0 0.9375
vt 0 0.6875
vt 0.34375 0.6875
vt 0.34375 0.8125
vt 0 0.8125
vn 0 0 -1
vn 0.7071067811865475 -0.7071067811865477 0
vn 0 0 1
vn -0.7071067811865474 0.7071067811865478 0
vn 0.7071067811865476 0.7071067811865475 0
vn -0.7071067811865476 -0.7071067811865475 0
usemtl m_95104457-216c-150c-85cf-9c273b4fc2bf
f 1/1/1 2/2/1 3/3/1 4/4/1
f 5/5/2 1/6/2 4/7/2 6/8/2
f 7/9/3 5/10/3 6/11/3 8/12/3
f 2/13/4 7/14/4 8/15/4 3/16/4
f 8/17/5 6/18/5 4/19/5 3/20/5
f 2/21/6 1/22/6 5/23/6 7/24/6
o cube
v 1.2821785405562802 0.06732635233321693 0.125
v 0.7960426284905288 -0.41880955973253453 0.125
v 0.7076542808422103 -0.3304212120842161 0.125
v 1.1937901929079617 0.15571469998153534 0.125
v 1.2821785405562802 0.06732635233321693 0.375
v 1.1937901929079617 0.15571469998153534 0.375
v 0.7960426284905288 -0.41880955973253453 0.375
v 0.7076542808422103 -0.3304212120842161 0.375
vt 0.34375 0.9375
vt 0 0.9375
vt 0 1
vt 0.34375 1
vt 0.46875 0.84375
vt 0.375 0.84375
vt 0.375 0.90625
vt 0.46875 0.90625
vt 0.6875 0.9375
vt 0.34375 0.9375
vt 0.34375 1
vt 0.6875 1
vt 0.59375 0.84375
vt 0.5 0.84375
vt 0.5 0.90625
vt 0.59375 0.90625
vt 0.34375 0.8125
vt 0 0.8125
vt 0 0.9375
vt 0.34375 0.9375
vt 0.34375 0.6875
vt 0 0.6875
vt 0 0.8125
vt 0.34375 0.8125
vn 0 0 -1
vn 0.7071067811865472 0.7071067811865479 0
vn 0 0 1
vn -0.7071067811865474 -0.7071067811865478 0
vn -0.7071067811865476 0.7071067811865476 0
vn 0.7071067811865476 -0.7071067811865476 0
usemtl m_95104457-216c-150c-85cf-9c273b4fc2bf
f 9/25/7 10/26/7 11/27/7 12/28/7
f 13/29/8 9/30/8 12/31/8 14/32/8
f 15/33/9 13/34/9 14/35/9 16/36/9
f 10/37/10 15/38/10 16/39/10 11/40/10
f 16/41/11 14/42/11 12/43/11 11/44/11
f 10/45/12 9/46/12 13/47/12 15/48/12